<svg xmlns="http://www.w3.org/2000/svg" viewBox="0 0 64 64" fill="none" role="img" aria-labelledby="title">
  <title id="title">VAL — inteligência que gera valor</title>
  <defs>
    <linearGradient id="lstem" x1="6" y1="4" x2="30" y2="60" gradientUnits="userSpaceOnUse"><stop stop-color="#1D3B27"/><stop offset="1" stop-color="#12291B"/></linearGradient>
    <linearGradient id="lleaf" x1="52" y1="4" x2="32" y2="59" gradientUnits="userSpaceOnUse"><stop stop-color="#A6CC5B"/><stop offset=".52" stop-color="#79A63E"/><stop offset="1" stop-color="#3F6B26"/></linearGradient>
    <linearGradient id="lshade" x1="56" y1="10" x2="36" y2="56" gradientUnits="userSpaceOnUse"><stop stop-color="#5F8A32"/><stop offset="1" stop-color="#2F5720"/></linearGradient>
  </defs>
  <g>
    <path d="M3.6 5.2H17.8L33.4 53.6L30.2 61.2Z" fill="url(#lstem)" stroke="url(#lstem)" stroke-width="1.6" stroke-linejoin="round"/>
    <path d="M30.6 61C32.8 45.6 39.4 24.4 52.4 3C60.4 17.4 58 38.6 45.2 51.6C40.6 56.3 35.6 59.4 30.6 61Z" fill="url(#lleaf)"/>
    <path d="M52.4 3C60.4 17.4 58 38.6 45.2 51.6C40.6 56.3 35.6 59.4 30.6 61C36.9 44.4 44.6 22.9 52.4 3Z" fill="url(#lshade)"/>
    <path d="M31.4 59.4C37.5 43.2 45 22.2 52.2 3.9" stroke="#F2F6E9" stroke-opacity=".5" stroke-width="1.05" stroke-linecap="round" fill="none"/>
  </g>
</svg>
