<svg xmlns="http://www.w3.org/2000/svg" viewBox="0 0 64 64" fill="none" role="img" aria-labelledby="title">
  <title id="title">VAL</title>
  <defs>
    <linearGradient id="surface" x1="5" y1="3" x2="60" y2="62" gradientUnits="userSpaceOnUse">
      <stop stop-color="#0E3530"/>
      <stop offset="1" stop-color="#071B19"/>
    </linearGradient>
    <linearGradient id="blue" x1="10" y1="7" x2="36" y2="53" gradientUnits="userSpaceOnUse">
      <stop stop-color="#72B8FF"/>
      <stop offset=".48" stop-color="#2D8CFF"/>
      <stop offset="1" stop-color="#167FE8"/>
    </linearGradient>
    <linearGradient id="green" x1="32" y1="55" x2="56" y2="24" gradientUnits="userSpaceOnUse">
      <stop stop-color="#009F78"/>
      <stop offset=".54" stop-color="#00C896"/>
      <stop offset="1" stop-color="#C8F25E"/>
    </linearGradient>
    <linearGradient id="leaf" x1="41" y1="29" x2="58" y2="6" gradientUnits="userSpaceOnUse">
      <stop stop-color="#00C896"/>
      <stop offset=".55" stop-color="#72E6C5"/>
      <stop offset="1" stop-color="#D9FF80"/>
    </linearGradient>
  </defs>
  <rect x="1" y="1" width="62" height="62" rx="15" fill="url(#surface)"/>
  <rect x="1" y="1" width="62" height="62" rx="15" stroke="#72E6C5" stroke-opacity=".18" stroke-width="2"/>
  <circle cx="52" cy="11" r="19" fill="#2D8CFF" fill-opacity=".08"/>
  <circle cx="10" cy="55" r="20" fill="#00C896" fill-opacity=".08"/>
  <g transform="translate(7 7) scale(.78)">
    <path d="M12.5 10.1c2.6-2.1 6.5-1.6 8.4 1.2l21.2 31.6-8.6 13.6L9.4 18.7c-1.8-2.8-1.2-6.4 1.4-8.4l1.7-.2Z" fill="url(#blue)"/>
    <path d="M33.5 56.5 49.8 29c1.8-3 5.7-4 8.8-2.3 3.1 1.8 4.1 5.8 2.1 8.8L42.4 59.1c-2.3 3.3-7.3 3.1-8.9-.4v-2.2Z" fill="url(#green)"/>
    <path d="M40.8 28.8C41.8 17.4 48.5 8.9 58.2 6.2c.5 10.7-4.6 19.9-15.8 23.4-.9.3-1.7-.1-1.6-.8Z" fill="url(#leaf)"/>
  </g>
</svg>
